<svg width="45" height="54" viewBox="0 0 45 54" fill="none" xmlns="http://www.w3.org/2000/svg">
<path fill-rule="evenodd" clip-rule="evenodd" d="M6.06558 1.09963C6.38184 0.572523 6.95148 0.25 7.56619 0.25H35.5H35.9818L36.1821 0.68818L44.0916 17.9902C44.196 18.2185 44.25 18.4667 44.25 18.7177V47C44.25 47.9665 43.4665 48.75 42.5 48.75H38.7868C38.7399 48.75 38.694 48.7632 38.6543 48.788L30.8975 53.636L30.7151 53.75H30.5H2C1.0335 53.75 0.25 52.9665 0.25 52V20.277C0.25 19.9598 0.336201 19.6486 0.499387 19.3766L4.85688 12.1141C4.9951 11.8838 5.23748 11.7544 5.48767 11.75H2.76619C1.40592 11.75 0.565728 10.266 1.26558 9.09963L6.06558 1.09963ZM5.51375 11.75C5.64083 11.7522 5.76906 11.7868 5.88587 11.8569C6.24106 12.07 6.35623 12.5307 6.14312 12.8859L1.78563 20.1484C1.76231 20.1872 1.75 20.2317 1.75 20.277V52C1.75 52.1381 1.86193 52.25 2 52.25H29.75V20.2122C29.75 19.9674 29.8014 19.7252 29.9008 19.5015L33.8146 10.6954C33.9829 10.3169 34.4261 10.1464 34.8046 10.3146C35.1831 10.4829 35.3536 10.9261 35.1854 11.3046L31.2715 20.1107C31.2573 20.1426 31.25 20.1772 31.25 20.2122V51.6468L37.8593 47.516C38.1374 47.3422 38.4588 47.25 38.7868 47.25H42.5C42.6381 47.25 42.75 47.1381 42.75 47V18.7177C42.75 18.6819 42.7423 18.6464 42.7274 18.6138L35.3852 2.5528L29.9246 10.9537C29.6018 11.4504 29.0496 11.75 28.4573 11.75H5.51375ZM34.118 1.75H7.56619C7.47837 1.75 7.397 1.79608 7.35182 1.87138L2.55182 9.87138C2.45184 10.038 2.57187 10.25 2.76619 10.25H28.4573C28.5419 10.25 28.6208 10.2072 28.6669 10.1362L34.118 1.75ZM16 44.5C20.1421 44.5 23.5 41.1421 23.5 37C23.5 32.8579 20.1421 29.5 16 29.5C11.8579 29.5 8.5 32.8579 8.5 37C8.5 41.1421 11.8579 44.5 16 44.5ZM16 46C20.9706 46 25 41.9706 25 37C25 32.0294 20.9706 28 16 28C11.0294 28 7 32.0294 7 37C7 41.9706 11.0294 46 16 46ZM5.5 47.5V26.5H26.5V47.5H5.5ZM4 26C4 25.4477 4.44772 25 5 25H27C27.5523 25 28 25.4477 28 26V48C28 48.5523 27.5523 49 27 49H5C4.44772 49 4 48.5523 4 48V26ZM11.9504 33.4897C12.2323 33.1861 12.7068 33.1686 13.0103 33.4504L15.9607 36.1901L18.7004 33.2397C18.9823 32.9361 19.4568 32.9186 19.7603 33.2004C20.0639 33.4823 20.0814 33.9568 19.7996 34.2603L17.0599 37.2107L20.0103 39.9504C20.3139 40.2323 20.3314 40.7068 20.0496 41.0103C19.7677 41.3139 19.2932 41.3314 18.9897 41.0496L16.0393 38.3099L13.2996 41.2603C13.0177 41.5639 12.5432 41.5814 12.2397 41.2996C11.9361 41.0177 11.9186 40.5432 12.2004 40.2397L14.9401 37.2893L11.9897 34.5496C11.6861 34.2677 11.6686 33.7932 11.9504 33.4897Z" fill="white"/>
</svg>
