<svg width="45" height="54" viewBox="0 0 45 54" fill="none" xmlns="http://www.w3.org/2000/svg">
<path fill-rule="evenodd" clip-rule="evenodd" d="M7.56619 0.25C6.95148 0.25 6.38184 0.572523 6.06558 1.09963L1.26558 9.09963C0.565728 10.266 1.40592 11.75 2.76619 11.75H5.48767C5.23748 11.7544 4.9951 11.8838 4.85688 12.1141L0.499387 19.3766C0.336201 19.6486 0.25 19.9598 0.25 20.277V52C0.25 52.9665 1.0335 53.75 2 53.75H30.5H30.7151L30.8975 53.636L38.6543 48.788C38.694 48.7632 38.7399 48.75 38.7868 48.75H42.5C43.4665 48.75 44.25 47.9665 44.25 47V18.7177C44.25 18.4667 44.196 18.2185 44.0916 17.9902L36.1821 0.68818L35.9818 0.25H35.5H7.56619ZM5.88587 11.8569C5.76906 11.7868 5.64083 11.7522 5.51375 11.75H28.4573C29.0496 11.75 29.6018 11.4504 29.9246 10.9537L35.3852 2.5528L42.7274 18.6138C42.7423 18.6464 42.75 18.6819 42.75 18.7177V47C42.75 47.1381 42.6381 47.25 42.5 47.25H38.7868C38.4588 47.25 38.1374 47.3422 37.8593 47.516L31.25 51.6468V20.2122C31.25 20.1772 31.2573 20.1426 31.2715 20.1107L35.1854 11.3046C35.3536 10.9261 35.1831 10.4829 34.8046 10.3146C34.4261 10.1464 33.9829 10.3169 33.8146 10.6954L29.9008 19.5015C29.8014 19.7252 29.75 19.9674 29.75 20.2122V52.25H2C1.86193 52.25 1.75 52.1381 1.75 52V20.277C1.75 20.2317 1.76231 20.1872 1.78563 20.1484L6.14312 12.8859C6.35623 12.5307 6.24106 12.07 5.88587 11.8569ZM7.56619 1.75H34.118L28.6669 10.1362C28.6208 10.2072 28.5419 10.25 28.4573 10.25H2.76619C2.57187 10.25 2.45184 10.038 2.55182 9.87138L7.35182 1.87138C7.397 1.79608 7.47837 1.75 7.56619 1.75ZM23.5 37C23.5 41.1421 20.1421 44.5 16 44.5C11.8579 44.5 8.5 41.1421 8.5 37C8.5 32.8579 11.8579 29.5 16 29.5C20.1421 29.5 23.5 32.8579 23.5 37ZM25 37C25 41.9706 20.9706 46 16 46C11.0294 46 7 41.9706 7 37C7 32.0294 11.0294 28 16 28C20.9706 28 25 32.0294 25 37ZM5.5 26.5V47.5H26.5V26.5H5.5ZM5 25C4.44772 25 4 25.4477 4 26V48C4 48.5523 4.44772 49 5 49H27C27.5523 49 28 48.5523 28 48V26C28 25.4477 27.5523 25 27 25H5ZM21.0303 35.5303C21.3232 35.2374 21.3232 34.7626 21.0303 34.4697C20.7374 34.1768 20.2626 34.1768 19.9697 34.4697L14.9507 39.4886C14.8916 39.5477 14.8197 39.569 14.7385 39.5558C14.652 39.5418 14.5612 39.4876 14.5027 39.3888C14.0398 38.607 13.3516 37.7058 12.2633 37.2978C11.8755 37.1523 11.4432 37.3488 11.2978 37.7367C11.1523 38.1245 11.3488 38.5568 11.7367 38.7022C12.3363 38.9271 12.8017 39.4601 13.2119 40.153C13.7796 41.1118 15.1425 41.4182 16.0114 40.5493L21.0303 35.5303Z" fill="white"/>
</svg>
