<svg width="60" height="55" viewBox="0 0 60 55" fill="none" xmlns="http://www.w3.org/2000/svg">
<path d="M26.1213 47.7631C27.0173 39.6876 10.5082 33.6813 8.56672 47.2394C8.52801 47.5097 8.74246 47.7582 9.01545 47.7527L10.1672 47.7295C10.4451 47.7239 10.6603 47.9699 10.6512 48.2476C10.4511 54.39 21.7992 57.7425 23.9993 48.0985C24.0481 47.8843 24.2401 47.7223 24.4597 47.7271L43.5875 48.1424M43.5875 48.1424L49.832 40.1737C49.9008 40.0859 49.999 40.0254 50.1098 40.0122C52.9671 39.6708 56.9608 43.0587 58.3162 45.4339C58.455 45.6772 58.3103 45.9732 58.0385 46.0409L56.7439 46.3633M43.5875 48.1424L43.4434 48.3263C43.1835 48.658 43.479 49.1335 43.8915 49.0473L56.7439 46.3633M56.7439 46.3633C58.5586 51.7855 49.9389 58.1114 44.9485 48.8162" stroke="white" stroke-width="1.5"/>
<path d="M41.5459 21.5113V25.1262H37.236V21.7373" stroke="white" stroke-width="1.5"/>
<path d="M16.1405 18.3484V30.0965C16.1405 30.5956 15.7359 31.0002 15.2368 31.0002H2.52682C2.02771 31.0002 1.62311 30.5956 1.62311 30.0965V18.3484C1.62311 17.8493 2.02771 17.4447 2.52682 17.4447H15.2368C15.7359 17.4447 16.1405 17.8493 16.1405 18.3484Z" stroke="white" stroke-width="1.5"/>
<path d="M36.5557 8.63353C36.5557 11.5706 35.1947 14.7335 30.4312 13.6039" stroke="white" stroke-width="1.5"/>
<path d="M30.6562 7.95577L37.6428 7.95577C37.9106 7.95577 38.1197 7.71771 38.0826 7.45243C36.9282 -0.802256 29.2321 0.54251 27.2907 2.67348C22.553 7.22724 26.6815 12.7607 29.6738 13.8983C29.9415 14.0001 30.2044 13.7871 30.2044 13.5007V8.40762C30.2044 8.15807 30.4067 7.95577 30.6562 7.95577Z" stroke="white" stroke-width="1.5"/>
<path d="M15.9136 22.415H1.84985" stroke="white" stroke-width="1.5"/>
<path d="M15.9136 25.578H1.84985" stroke="white" stroke-width="1.5"/>
<path d="M29.1001 13C26.6135 14.8398 21.9242 20.3096 22.749 27.2334M39.5345 43.9519H32.0471C31.7976 43.9519 31.5953 43.7496 31.5953 43.5001V34.7212C31.5953 34.6997 31.5937 34.6777 31.5904 34.6565C31.4025 33.4536 30.5064 33.268 30.0441 33.328C30.0195 33.3312 29.995 33.3334 29.9702 33.3334H25.5543C25.4991 33.3334 25.4441 33.3235 25.3929 33.3026C24.4529 32.9199 23.8519 32.2569 23.4805 31.526M39.5345 43.9519C39.6783 42.9495 39.4666 40.8713 37.5736 40.2032C37.3928 40.1394 37.2541 39.9834 37.2361 39.7924L36.5891 32.9181C36.5868 32.8938 36.5828 32.8705 36.5764 32.8469C36.1114 31.1043 34.5726 27.7316 32.0489 27.9111M39.5345 43.9519H42.639M32.0489 27.9111C32.3891 27.1366 32.9105 25.8456 33.1432 24.9741M32.0489 27.9111H23.301C23.1066 27.9111 22.934 27.7869 22.8724 27.6025L22.749 27.2334M33.1432 24.9741C33.2726 24.4897 33.3127 24.135 33.1831 24.0704L29.0233 21.2356C28.927 21.17 28.8589 21.0703 28.8394 20.9554C28.5951 19.5141 28.9077 17.2004 31.9594 18.1673C32.0171 18.1855 32.0723 18.2169 32.1178 18.2568L33.3343 19.3259M33.1432 24.9741H43.3906M22.749 27.2334C22.7992 27.6541 22.8688 28.081 22.9596 28.5138C22.9701 28.5635 22.9721 28.6145 22.9668 28.6651C22.8924 29.3745 22.967 30.5152 23.4805 31.526M33.6368 13.9037L33.3343 19.3259M33.3343 19.3259L35.7772 21.4728C35.8596 21.5452 35.9657 21.5852 36.0754 21.5852H41.9542C42.0041 21.5852 42.0537 21.5769 42.101 21.5607L48.0339 19.523C48.32 19.4248 48.62 19.63 48.6322 19.9323L48.8158 24.5041C48.8261 24.7606 48.621 24.9741 48.3643 24.9741H46.5663M23.4805 31.526H10.9515C10.702 31.526 10.4997 31.7283 10.4997 31.9778V36.0445C10.4997 36.294 10.702 36.4963 10.9515 36.4963H13M20.4804 36.4963H13M13 36.4963C12.0347 36.5703 8.62566 38.9134 8.50338 47.1106C8.49965 47.3601 8.7023 47.5667 8.95185 47.5667H41.0472C41.23 47.5667 41.395 47.4568 41.4633 47.2873C41.8349 46.3649 42.2425 45.2302 42.639 43.9519M43.3906 24.9741H46.5663M43.3906 24.9741C45.8459 30.2964 44.3451 38.4523 42.639 43.9519M48.5 31.5L46.5663 24.9741M49.742 34.6889L51.3298 40.1112" stroke="white" stroke-width="1.5"/>
</svg>
