<svg width="46" height="55" viewBox="0 0 46 55" fill="none" xmlns="http://www.w3.org/2000/svg">
<path fill-rule="evenodd" clip-rule="evenodd" d="M20.0019 2.67733C20.0019 2.04625 20.5135 1.53465 21.1446 1.53465H25.9137C26.5448 1.53465 27.0564 2.04625 27.0564 2.67733V3.9263C27.0564 5.15288 27.89 6.1474 28.9362 6.5583C30.1511 7.03548 31.4133 7.75756 32.0289 8.62673C32.0549 8.66345 32.0609 8.68448 32.062 8.69179C32.0614 8.69534 32.0572 8.71253 32.0335 8.74212C31.9645 8.82845 31.789 8.93593 31.549 8.93593H30.9241C29.9692 8.93593 29.195 9.71008 29.195 10.665H29.945L29.1952 10.6827L29.3505 17.2993C29.3595 17.683 29.0509 17.999 28.667 17.999C28.2894 17.999 27.9833 17.6929 27.9833 17.3153V12.3353C27.9833 11.6365 27.4167 11.0699 26.7179 11.0699C26.019 11.0699 25.4524 11.6365 25.4524 12.3353V17.4124C25.4524 17.7364 25.1898 17.999 24.8658 17.999C24.5418 17.999 24.2792 17.7364 24.2792 17.4124V12.3546C24.2792 11.6451 23.704 11.0699 22.9945 11.0699C22.285 11.0699 21.7099 11.6451 21.7099 12.3546V17.145C21.7099 17.6167 21.3275 17.999 20.8559 17.999C20.3843 17.999 20.0019 17.6167 20.0019 17.145V12.2865C20.0019 11.6146 19.4573 11.0699 18.7854 11.0699C18.1135 11.0699 17.5688 11.6146 17.5688 12.2865V17.2064C17.5688 17.6442 17.214 17.999 16.7762 17.999C16.3385 17.999 15.9837 17.6442 15.9837 17.2064V16.2896V10.7669L16.7557 7.97554C16.9085 7.60837 17.332 6.99728 18.0379 6.57968C18.9289 6.05264 20.0019 5.08872 20.0019 3.71004V2.67733ZM33.2048 9.67923C33.1367 9.76435 33.0609 9.84309 32.9787 9.91505H39.2801C40.7396 9.91505 41.9227 11.0982 41.9227 12.5577V24.3089L45.7231 30.4145L45.8364 30.5964V30.8108V51.8227C45.8364 53.2822 44.6532 54.4653 43.1937 54.4653H2.96639C1.50688 54.4653 0.323716 53.2822 0.323716 51.8227V30.8108V30.5876L0.445763 30.4007L4.42985 24.3001V12.5577C4.42985 11.0982 5.61302 9.91505 7.07253 9.91505H14.6629L15.3212 7.53522L15.3313 7.49866L15.345 7.46331C15.6017 6.8033 16.2441 5.89798 17.2743 5.28863C18.0434 4.83368 18.5019 4.26018 18.5019 3.71004V2.67733C18.5019 1.21782 19.6851 0.0346535 21.1446 0.0346535H25.9137C27.3732 0.0346535 28.5564 1.21782 28.5564 2.67733V3.9263C28.5564 4.4367 28.914 4.93804 29.4845 5.16213C30.7596 5.66293 32.3729 6.5171 33.253 7.75977C33.469 8.06466 33.5788 8.41265 33.5599 8.77097C33.5413 9.12366 33.4009 9.43407 33.2048 9.67923ZM30.8501 17.264L30.7997 15.1163H33.1529C34.0962 15.1163 34.8608 15.881 34.8608 16.8243V17.8936C34.8608 18.8368 34.0962 19.6015 33.1529 19.6015H12.8361C11.8928 19.6015 11.1282 18.8368 11.1282 17.8936V16.8243C11.1282 15.881 11.8928 15.1163 12.8361 15.1163H14.4837V16.2896V17.2064C14.4837 18.4726 15.5101 19.499 16.7762 19.499C17.651 19.499 18.4114 19.009 18.7979 18.2886C19.1999 19.0106 19.9708 19.499 20.8559 19.499C21.7647 19.499 22.5531 18.9841 22.9454 18.23C23.2635 18.9761 24.0036 19.499 24.8658 19.499C25.6861 19.499 26.3958 19.0257 26.7367 18.3373C27.1034 19.0284 27.8302 19.499 28.667 19.499C29.8931 19.499 30.8789 18.4898 30.8501 17.264ZM30.7128 11.415L30.7645 13.6163H33.1529C34.9246 13.6163 36.3608 15.0526 36.3608 16.8243V17.8936C36.3608 19.6653 34.9246 21.1015 33.1529 21.1015H12.8361C11.0644 21.1015 9.62817 19.6652 9.62817 17.8936V16.8243C9.62817 15.0526 11.0644 13.6163 12.8361 13.6163H14.4837V11.415H7.07253C6.44145 11.415 5.92985 11.9266 5.92985 12.5577V23.7733H40.4227V12.5577C40.4227 11.9266 39.9111 11.415 39.2801 11.415H30.7128ZM5.58583 25.2733H40.7561L43.7361 30.0608H2.45928L5.58583 25.2733ZM1.82372 31.5608H44.3364V51.8227C44.3364 52.4538 43.8248 52.9653 43.1937 52.9653H2.96639C2.33531 52.9653 1.82372 52.4538 1.82372 51.8227V31.5608ZM22.4651 33.9179C22.8793 33.9179 23.2151 34.2537 23.2151 34.6679V36.8127C25.2292 36.9275 27.5225 37.5174 29.4027 38.9214C31.4168 40.4254 32.8879 42.814 33.0698 46.3494H33.8082C34.1161 46.3494 34.3806 46.5349 34.4962 46.8003C34.954 46.9212 35.2915 47.3383 35.2915 47.8342C35.2915 48.4247 34.8128 48.9035 34.2222 48.9035H11.7668C11.1762 48.9035 10.6975 48.4247 10.6975 47.8342C10.6975 47.2436 11.1762 46.7649 11.7668 46.7649H11.8301C11.9531 46.5186 12.2076 46.3494 12.5015 46.3494H13.221L13.2215 46.3373C13.3356 43.2186 14.3691 40.8764 16.0605 39.283C17.5778 37.8536 19.5605 37.0871 21.7151 36.8508V34.6679C21.7151 34.2537 22.0509 33.9179 22.4651 33.9179ZM22.4861 38.2912C20.3226 38.4161 18.4457 39.0968 17.0891 40.3749C15.744 41.6419 14.8323 43.5694 14.7221 46.3494H31.5676C31.391 43.2773 30.1259 41.3335 28.5052 40.1233C26.7276 38.796 24.4432 38.2948 22.4861 38.2912ZM21.1263 40.3661C21.1688 40.7697 20.8761 41.1312 20.4725 41.1737C19.959 41.2278 18.0242 41.6916 17.3146 44.53C17.2161 44.9237 16.8172 45.163 16.4236 45.0646C16.0299 44.9662 15.7906 44.5673 15.889 44.1737C16.7889 40.5741 19.376 39.8116 20.3187 39.7124C20.7223 39.6699 21.0838 39.9626 21.1263 40.3661Z" fill="white"/>
</svg>
